<svg width="55" height="40" viewBox="0 0 55 40" fill="none" xmlns="http://www.w3.org/2000/svg">
<path d="M52.665 32.0042V32.3042H52.965H53.9216C54.13 32.3042 54.3287 32.3854 54.4742 32.528C54.6195 32.6703 54.7 32.8621 54.7 33.0608V35.4569C54.7 36.5803 54.2446 37.6589 53.4318 38.4551C52.6189 39.2515 51.515 39.7 50.3627 39.7H4.63726C3.48498 39.7 2.38111 39.2515 1.56817 38.4551C0.755432 37.6588 0.3 36.5803 0.3 35.4569V33.0608C0.3 32.8621 0.380486 32.6703 0.525809 32.528L0.315865 32.3137L0.525811 32.528C0.671342 32.3854 0.870013 32.3042 1.07843 32.3042H2.035H2.335V32.0042L2.335 3.46155C2.335 3.46148 2.335 3.46142 2.335 3.46136C2.33609 2.62525 2.67555 1.82242 3.28098 1.22929C3.88663 0.635944 4.70903 0.30107 5.56813 0.3H49.4319C50.291 0.30107 51.1134 0.635944 51.719 1.22929C52.3245 1.82246 52.664 2.62537 52.665 3.46155V32.0042ZM3.89186 3.46093V3.46117V32.0042V32.3042H4.19186H50.8081H51.1081V32.0042V3.46117V3.46093C51.1078 3.02199 50.9296 2.60239 50.6147 2.29392C50.3001 1.98565 49.8747 1.81339 49.4323 1.81305H49.4321L5.56794 1.81305L5.56771 1.81305C5.12532 1.81339 4.69993 1.98565 4.38528 2.29392C4.07041 2.60239 3.89221 3.02198 3.89186 3.46093ZM2.15686 33.8173H1.85686V34.1173V35.4569C1.85686 36.183 2.15132 36.878 2.67341 37.3895C3.19528 37.9008 3.90181 38.187 4.63726 38.187H50.3627C51.0982 38.187 51.8047 37.9008 52.3266 37.3895C52.8487 36.878 53.1431 36.183 53.1431 35.4569V34.1173V33.8173H52.8431H33.6751H33.3751V34.1173V34.4276C33.3746 34.8814 33.1904 35.3178 32.8609 35.6406C32.5312 35.9637 32.0828 36.1464 31.6139 36.1469H23.3861C22.9172 36.1464 22.4688 35.9637 22.1391 35.6406C21.8096 35.3178 21.6254 34.8814 21.6249 34.4276V34.1173V33.8173H21.3249H2.15686Z" fill="#6A51A2" stroke="white" stroke-width="0.6"/>
</svg>
