<svg width="55" height="40" viewBox="0 0 55 40" fill="none" xmlns="http://www.w3.org/2000/svg">
<path d="M52.715 32.0042V32.2542H52.965H53.9216C54.1429 32.2542 54.3542 32.3404 54.5092 32.4923C54.664 32.6439 54.75 32.8485 54.75 33.0607V35.4569C54.75 36.5939 54.289 37.6853 53.4668 38.4908C52.6444 39.2965 51.528 39.75 50.3627 39.75H4.63725C3.47205 39.75 2.35557 39.2965 1.53317 38.4908C0.710954 37.6853 0.25 36.5939 0.25 35.4569V33.0607C0.25 32.8485 0.336008 32.6439 0.490819 32.4923C0.645804 32.3404 0.857081 32.2542 1.07843 32.2542H2.035H2.285V32.0042L2.285 3.46148C2.285 3.46142 2.285 3.46136 2.285 3.4613C2.28611 2.61162 2.63108 1.79598 3.24599 1.19357C3.86108 0.590977 4.69607 0.251079 5.56809 0.25H49.4319C50.3039 0.251079 51.1389 0.590977 51.754 1.19357C52.369 1.79603 52.7139 2.61174 52.715 3.46148V32.0042ZM3.94186 3.46097V3.46117V32.0042V32.2542H4.19186H50.8081H51.0581V32.0042V3.46117V3.46097C51.0578 3.03561 50.8851 2.62882 50.5797 2.32963C50.2745 2.03062 49.8617 1.86338 49.4323 1.86305H49.4321H5.56794L5.56775 1.86305C5.13828 1.86338 4.72548 2.03062 4.42027 2.32963C4.11488 2.62882 3.9422 3.03561 3.94186 3.46097ZM2.15686 33.8673H1.90686V34.1173V35.4569C1.90686 36.1694 2.1958 36.8516 2.7084 37.3538C3.22082 37.8558 3.91475 38.137 4.63725 38.137H50.3627C51.0853 38.137 51.7792 37.8558 52.2916 37.3538C52.8042 36.8516 53.0931 36.1694 53.0931 35.4569V34.1173V33.8673H52.8431H33.6751H33.4251V34.1173V34.4276C33.4246 34.895 33.2349 35.3442 32.8959 35.6764C32.5567 36.0086 32.0958 36.1964 31.614 36.1969H23.386C22.9042 36.1964 22.4433 36.0086 22.1041 35.6764C21.7651 35.3442 21.5754 34.895 21.5749 34.4276V34.1173V33.8673H21.3249H2.15686Z" fill="#6A51A2" stroke="white" stroke-width="0.5"/>
<path d="M12.2692 21.3517L12.2692 17.0927C12.2692 17.0927 12.2692 17.0926 12.2692 17.0925C12.2683 16.6848 12.1061 16.2927 11.8158 15.9997C11.5254 15.7065 11.1295 15.5357 10.7121 15.5247L10.4687 15.5183V15.2748V14.672C10.4687 12.841 11.2073 11.0858 12.5209 9.79235C13.8343 8.49898 15.6148 7.77305 17.4706 7.77305C19.3264 7.77305 21.107 8.49898 22.4204 9.79235C23.7339 11.0858 24.4725 12.841 24.4725 14.672V15.2748V15.5183L24.2291 15.5247C23.8117 15.5357 23.4159 15.7065 23.1254 15.9997C22.8351 16.2928 22.6729 16.6849 22.672 17.0927V21.352V21.3532C22.67 21.7487 22.8208 22.1308 23.0948 22.422C23.3689 22.7132 23.746 22.8917 24.15 22.9199L24.4482 22.9408L24.3749 23.2306C24.1985 23.9284 23.8222 24.561 23.2915 25.0533C22.7608 25.5456 22.0981 25.8769 21.3824 26.0083L21.3372 25.7624L21.1043 25.8532C20.9274 25.3995 20.615 25.0084 20.2074 24.732C19.7997 24.4555 19.3163 24.3068 18.8205 24.3059H17.0205C16.3693 24.3059 15.7455 24.5606 15.2862 25.013C14.827 25.4651 14.5697 26.0776 14.5697 26.7154C14.5697 27.3532 14.827 27.9657 15.2862 28.4179C15.7455 28.8702 16.3693 29.125 17.0205 29.125H18.821C18.821 29.125 18.821 29.125 18.821 29.125C19.3382 29.1249 19.8418 28.9639 20.2599 28.6656C20.678 28.3673 20.9891 27.9471 21.1495 27.4653L21.1991 27.3166L21.3545 27.2964C22.469 27.1516 23.503 26.6481 24.2958 25.8651C25.0886 25.0822 25.5957 24.0637 25.7391 22.9684L25.7589 22.8174L25.9022 22.7657C26.3925 22.5888 26.8152 22.2683 27.1138 21.8481C27.4124 21.428 27.5727 20.9282 27.5736 20.4162V18.0236C27.5724 17.5181 27.4157 17.0245 27.1235 16.608C26.8312 16.1914 26.417 15.8713 25.9353 15.6906L25.773 15.6298V15.4566V14.672C25.773 12.5059 24.8993 10.4277 23.3427 8.89487C21.786 7.36189 19.6738 6.5 17.4706 6.5C15.2674 6.5 13.1553 7.36189 11.5985 8.89487C10.042 10.4277 9.16819 12.5059 9.16819 14.672V15.4566V15.6298L9.00597 15.6906C8.52419 15.8713 8.11004 16.1914 7.81778 16.608C7.52561 17.0245 7.36884 17.518 7.36768 18.0233V20.4167C7.36768 21.0792 7.63489 21.7153 8.11181 22.185C8.58886 22.6547 9.23669 22.9193 9.91297 22.9193H10.6731M12.2692 21.3517C12.2692 21.3516 12.2692 21.3515 12.2692 21.3513L12.5192 21.352H12.2692V21.3517ZM12.2692 21.3517C12.2681 21.7659 12.1006 22.1636 11.8019 22.4576C11.5031 22.7519 11.0973 22.9183 10.6731 22.9193M10.6731 22.9193L10.6737 23.1693M10.6731 22.9193H10.6737V23.1693M10.6737 23.1693H9.91297C9.17161 23.1693 8.46062 22.8793 7.9364 22.3631C7.41218 21.8469 7.11768 21.1467 7.11768 20.4167V18.023C7.1189 17.4661 7.29166 16.9226 7.61312 16.4644C7.93459 16.0062 8.38965 15.6548 8.91819 15.4566L10.6737 23.1693ZM10.9687 17.0925C10.9688 17.0169 10.9402 16.9446 10.8895 16.8896C10.8387 16.8346 10.7696 16.8011 10.6961 16.7944L10.6849 16.7934H10.6737H9.91297C9.58406 16.7934 9.26787 16.9221 9.03414 17.1522C8.80028 17.3825 8.66819 17.6957 8.66819 18.023V20.4167C8.66819 20.744 8.80028 21.0572 9.03414 21.2875C9.26787 21.5176 9.58406 21.6463 9.91297 21.6463H10.6737H10.6844L10.6951 21.6454C10.7643 21.6394 10.8297 21.6096 10.8798 21.5603C10.9299 21.5109 10.9614 21.4451 10.9677 21.3741L10.9687 21.363V21.352V17.0925ZM10.9687 17.0925C10.9687 17.0928 10.9687 17.093 10.9687 17.0932L10.7187 17.0922M10.9687 17.0925V17.0922H10.7187M10.7187 17.0922V21.352L9.91297 21.3963C9.64914 21.3963 9.39611 21.2931 9.20955 21.1094C9.02299 20.9256 8.91819 20.6765 8.91819 20.4167V18.023C8.91819 17.7632 9.02299 17.5141 9.20955 17.3304C9.39611 17.1466 9.64914 17.0434 9.91297 17.0434H10.6737C10.686 17.0445 10.6975 17.0502 10.7058 17.0592C10.7142 17.0682 10.7187 17.08 10.7187 17.0922ZM24.2675 16.7934H24.2563L24.2225 17.0922H23.9725V17.0927C23.9725 17.0929 23.9725 17.0931 23.9725 17.0932L23.9725 21.352V21.363L23.9735 21.3741C23.9798 21.4451 24.0113 21.5109 24.0614 21.5603C24.1115 21.6096 24.177 21.6394 24.2461 21.6454L24.2568 21.6463H24.2675H25.0283C25.3572 21.6463 25.6734 21.5176 25.9071 21.2875C26.1409 21.0572 26.273 20.744 26.273 20.4167V18.023C26.273 17.6957 26.1409 17.3825 25.9071 17.1522C25.6734 16.9221 25.3572 16.7934 25.0283 16.7934H24.2675ZM17.0205 27.8519H18.821C19.1248 27.8519 19.417 27.7331 19.633 27.5204C19.8491 27.3076 19.9713 27.0181 19.9713 26.7154C19.9713 26.4128 19.8491 26.1233 19.633 25.9104C19.417 25.6977 19.1248 25.5789 18.821 25.5789H17.0205C16.7167 25.5789 16.4245 25.6977 16.2085 25.9104C15.9924 26.1233 15.8702 26.4128 15.8702 26.7154C15.8702 27.0181 15.9924 27.3076 16.2085 27.5204C16.4245 27.7331 16.7167 27.8519 17.0205 27.8519Z" fill="#6A51A2" stroke="white" stroke-width="0.5"/>
<path d="M30.3745 23.4584L29.9406 23.8864H30.5501H45.074C45.3271 23.8864 45.5724 23.7914 45.7553 23.6182C45.9387 23.4447 46.0444 23.2063 46.0444 22.9545V12.0455C46.0444 11.7937 45.9387 11.5553 45.7553 11.3818C45.5724 11.2086 45.3271 11.1136 45.074 11.1136H33.5471C33.294 11.1136 33.0487 11.2086 32.8658 11.3818C32.6824 11.5553 32.5766 11.7937 32.5766 12.0455V18.2974C32.5715 20.219 31.7845 22.0676 30.3745 23.4584ZM33.5471 10.25H45.074C45.5852 10.25 46.0729 10.4423 46.4304 10.7807C46.7875 11.1186 46.9853 11.5739 46.9853 12.0455V22.9545C46.9853 23.4261 46.7875 23.8814 46.4304 24.2193C46.0729 24.5577 45.5852 24.75 45.074 24.75H28.5112C28.4117 24.7436 28.3181 24.7084 28.243 24.6509C28.1666 24.5924 28.1137 24.5145 28.0892 24.4296C28.0648 24.3449 28.069 24.2552 28.1016 24.1724C28.1339 24.0907 28.1931 24.018 28.2735 23.9661C29.2975 23.3766 30.1457 22.5467 30.7351 21.5549C31.3256 20.5614 31.6362 19.4395 31.6358 18.2977C31.6358 18.2977 31.6358 18.2977 31.6358 18.2976V12.0455C31.6358 11.5739 31.8336 11.1186 32.1906 10.7807C32.5482 10.4423 33.0358 10.25 33.5471 10.25Z" fill="#6A51A2" stroke="white" stroke-width="0.5"/>
<path d="M39.6088 16.875V17.125H39.8588H41.9941C42.1263 17.125 42.2476 17.1714 42.3325 17.2459C42.4163 17.3195 42.4559 17.4118 42.4559 17.5C42.4559 17.5882 42.4163 17.6805 42.3325 17.7541C42.2476 17.8286 42.1263 17.875 41.9941 17.875H39.8588H39.6088V18.125V20C39.6088 20.0882 39.5692 20.1805 39.4854 20.2541C39.4006 20.3286 39.2793 20.375 39.1471 20.375C39.0149 20.375 38.8936 20.3286 38.8087 20.2541C38.7249 20.1805 38.6853 20.0882 38.6853 20V18.125V17.875H38.4353H36.3C36.1678 17.875 36.0465 17.8286 35.9617 17.7541C35.8779 17.6805 35.8383 17.5882 35.8383 17.5C35.8383 17.4118 35.8779 17.3195 35.9617 17.2459C36.0465 17.1714 36.1678 17.125 36.3 17.125H38.4353H38.6853V16.875V15C38.6853 14.9118 38.7249 14.8195 38.8087 14.7459C38.8936 14.6714 39.0149 14.625 39.1471 14.625C39.2793 14.625 39.4006 14.6714 39.4854 14.7459C39.5692 14.8195 39.6088 14.9118 39.6088 15V16.875Z" fill="#6A51A2" stroke="white" stroke-width="0.5"/>
</svg>
